<svg width="67" height="60" viewBox="0 0 67 60" fill="none" xmlns="http://www.w3.org/2000/svg">
<path d="M66.6766 56.3265L35.5712 1.22449C35.1076 0.405612 34.3075 0 33.5 0C32.6925 0 31.8849 0.405612 31.4288 1.22449L0.323417 56.3265C-0.596286 57.9643 0.555211 60 2.39462 60H64.6054C66.4448 60 67.5963 57.9643 66.6766 56.3265ZM31.1073 22.6531C31.1073 22.3163 31.3765 22.0408 31.7055 22.0408H35.2945C35.6235 22.0408 35.8927 22.3163 35.8927 22.6531V36.7347C35.8927 37.0714 35.6235 37.3469 35.2945 37.3469H31.7055C31.3765 37.3469 31.1073 37.0714 31.1073 36.7347V22.6531ZM33.5 49.5918C32.5608 49.5722 31.6665 49.1766 31.0091 48.4898C30.3517 47.803 29.9834 46.8798 29.9834 45.9184C29.9834 44.9569 30.3517 44.0337 31.0091 43.3469C31.6665 42.6602 32.5608 42.2645 33.5 42.2449C34.4392 42.2645 35.3335 42.6602 35.9909 43.3469C36.6483 44.0337 37.0166 44.9569 37.0166 45.9184C37.0166 46.8798 36.6483 47.803 35.9909 48.4898C35.3335 49.1766 34.4392 49.5722 33.5 49.5918Z" fill="#F2C94C"/>
</svg>
