<svg width="2554" height="448" viewBox="0 0 2554 448" fill="none" xmlns="http://www.w3.org/2000/svg">
<path d="M725.176 123.089L671.896 45.0406H636.472V46.4806L704.44 144.401L633.592 245.777V246.641H670.168L725.176 166.865L779.896 246.641H816.472V245.777L745.336 144.401L813.592 46.4806V45.0406H778.168L725.176 123.089ZM1003.48 246.641H1037.75L947.316 45.0406H912.18L821.748 246.641H856.02L875.028 204.305H984.18L1003.48 246.641ZM972.372 174.929H887.124L929.748 79.0246L972.372 174.929ZM1093.07 246.641H1125.62V74.1286H1191.57V45.0406C1133.68 45.0406 1084.72 45.0406 1026.83 45.0406V74.1286H1093.07V246.641ZM1267.73 246.641H1300.27V74.1286H1366.23V45.0406C1308.34 45.0406 1259.38 45.0406 1201.49 45.0406V74.1286H1267.73V246.641ZM1482.27 41.2966C1421.5 41.2966 1378.59 85.6486 1378.59 146.993C1378.59 199.985 1411.71 250.961 1481.69 250.961C1551.67 250.961 1584.79 201.137 1584.79 146.705C1584.79 92.2726 1551.1 41.5846 1482.27 41.2966ZM1410.55 147.281C1410.55 103.217 1435.61 70.6726 1482.27 70.6726C1531.51 71.5366 1552.83 110.129 1552.83 147.281C1552.83 185.873 1531.8 221.297 1481.69 221.297C1431.87 221.297 1411.13 182.993 1410.55 147.281ZM1793.5 240.881L1733.3 173.777C1773.05 168.017 1788.02 139.793 1788.02 110.993C1788.02 77.0086 1763.54 45.0406 1716.89 45.0406C1685.5 45.0406 1654.39 44.7526 1623 44.7526V246.641H1655.26V176.945H1697.88L1759.22 246.641H1796.95L1793.5 240.881ZM1716.89 74.4166C1743.38 74.4166 1755.19 93.4246 1755.19 111.569C1755.19 130.577 1743.38 147.569 1716.6 147.569H1655.26V74.4166H1716.89ZM1855.33 45.0406H1830.56V246.641H1863.11V104.369L1977.44 246.641H2001.92V45.0406H1969.67V188.465L1855.33 45.0406ZM2201.65 214.961H2085.01V160.817H2196.17V130.865H2085.01V76.4326H2200.78V45.0406H2052.75C2052.75 112.145 2052.75 179.537 2052.75 246.641H2201.65V214.961ZM2260.72 45.0406H2222.42V46.4806L2300.18 163.985V246.641H2332.44V163.985L2412.5 46.4806V45.0406H2373.62L2316.31 134.033L2260.72 45.0406Z" fill="white"/>
<path d="M638.392 409.641H647.128V342.729H638.392V409.641ZM687.611 409.641H696.347V386.409L716.987 409.641H728.891L704.027 383.241L728.795 357.033H716.603L696.347 380.361V338.601H687.611V409.641ZM775.513 409.641H784.153V378.633C784.153 363.561 774.841 356.073 762.649 356.073C755.545 356.073 749.209 359.049 745.753 364.521V357.033H737.017V409.641H745.753V380.553C745.753 369.225 751.897 363.657 760.825 363.657C769.657 363.657 775.513 369.129 775.513 379.881V409.641ZM848.343 383.241C848.343 366.633 836.727 356.169 821.751 356.169C806.871 356.169 795.159 366.633 795.159 383.241C795.159 399.945 806.487 410.505 821.367 410.505C836.343 410.505 848.343 399.945 848.343 383.241ZM804.087 383.241C804.087 369.993 812.439 363.753 821.655 363.753C830.679 363.753 839.415 369.993 839.415 383.241C839.415 396.585 830.487 402.825 821.367 402.825C812.247 402.825 804.087 396.585 804.087 383.241ZM870.102 409.641H879.126L891.798 367.881L904.47 409.641H913.494L929.91 357.033H921.27L909.366 401.289L896.598 357.033H887.67L874.614 401.193L862.518 357.033H853.59L870.102 409.641ZM974.445 409.641H983.469L996.141 367.881L1008.81 409.641H1017.84L1034.25 357.033H1025.61L1013.71 401.289L1000.94 357.033H992.013L978.957 401.193L966.861 357.033H957.933L974.445 409.641ZM1042.92 409.641H1051.66V380.553C1051.66 369.225 1057.8 363.657 1066.73 363.657C1075.56 363.657 1081.42 369.129 1081.42 379.881V409.641H1090.06V378.633C1090.06 363.561 1080.75 356.073 1069.04 356.073C1061.64 356.073 1055.12 359.049 1051.66 364.617V338.601H1042.92V409.641ZM1101.07 383.145C1101.07 399.465 1111.91 410.505 1125.93 410.505C1135.63 410.505 1142.44 405.513 1145.61 399.849V409.641H1154.44V357.033H1145.61V366.633C1142.54 361.161 1135.82 356.169 1126.03 356.169C1111.91 356.169 1101.07 366.729 1101.07 383.145ZM1145.61 383.241C1145.61 395.625 1137.35 402.825 1127.75 402.825C1118.15 402.825 1109.99 395.529 1109.99 383.145C1109.99 370.761 1118.15 363.753 1127.75 363.753C1137.35 363.753 1145.61 371.049 1145.61 383.241ZM1171.12 395.241C1171.12 405.801 1176.4 409.641 1185.72 409.641H1193.59V402.249H1187.16C1181.78 402.249 1179.86 400.425 1179.86 395.241V364.233H1193.59V357.033H1179.86V343.785H1171.12V357.033H1164.31V364.233H1171.12V395.241ZM1305.7 409.641H1314.34V378.633C1314.34 363.561 1305.03 356.073 1293.03 356.073C1284.97 356.073 1277.48 360.201 1274.41 367.785C1270.95 359.913 1263.75 356.073 1255.11 356.073C1248.2 356.073 1241.96 359.049 1238.5 364.617V357.033H1229.77V409.641H1238.5V380.649C1238.5 369.321 1244.55 363.657 1253.38 363.657C1262.02 363.657 1267.78 369.129 1267.78 379.881V409.641H1276.42V380.649C1276.42 369.321 1282.47 363.657 1291.3 363.657C1299.94 363.657 1305.7 369.129 1305.7 379.881V409.641ZM1325.41 383.145C1325.41 399.465 1336.26 410.505 1350.27 410.505C1359.97 410.505 1366.79 405.513 1369.95 399.849V409.641H1378.79V357.033H1369.95V366.633C1366.88 361.161 1360.16 356.169 1350.37 356.169C1336.26 356.169 1325.41 366.729 1325.41 383.145ZM1369.95 383.241C1369.95 395.625 1361.7 402.825 1352.1 402.825C1342.5 402.825 1334.34 395.529 1334.34 383.145C1334.34 370.761 1342.5 363.753 1352.1 363.753C1361.7 363.753 1369.95 371.049 1369.95 383.241ZM1395.47 395.241C1395.47 405.801 1400.75 409.641 1410.06 409.641H1417.93V402.249H1411.5C1406.12 402.249 1404.2 400.425 1404.2 395.241V364.233H1417.93V357.033H1404.2V343.785H1395.47V357.033H1388.65V364.233H1395.47V395.241ZM1430.44 395.241C1430.44 405.801 1435.72 409.641 1445.03 409.641H1452.9V402.249H1446.47C1441.09 402.249 1439.17 400.425 1439.17 395.241V364.233H1452.9V357.033H1439.17V343.785H1430.44V357.033H1423.62V364.233H1430.44V395.241ZM1485.85 363.561C1494.88 363.561 1502.56 369.225 1502.46 379.497H1469.25C1470.21 369.225 1477.31 363.561 1485.85 363.561ZM1510.43 393.417H1501.02C1499.1 399.081 1494.11 403.113 1486.24 403.113C1477.31 403.113 1469.82 397.257 1469.15 386.601H1511.2C1511.39 384.777 1511.49 383.241 1511.49 381.321C1511.49 366.921 1501.5 356.169 1486.24 356.169C1470.88 356.169 1460.22 366.633 1460.22 383.241C1460.22 399.945 1471.26 410.505 1486.24 410.505C1499.29 410.505 1507.74 403.017 1510.43 393.417ZM1531.75 381.033C1531.75 368.841 1538.09 365.097 1546.44 365.097H1548.75V356.073C1540.39 356.073 1534.73 359.721 1531.75 365.577V357.033H1523.02V409.641H1531.75V381.033ZM1596.65 395.337C1596.27 376.521 1565.74 383.337 1565.74 370.857C1565.74 366.633 1569.58 363.561 1576.01 363.561C1583.02 363.561 1587.05 367.401 1587.44 372.681H1596.17C1595.6 362.409 1587.92 356.169 1576.3 356.169C1564.59 356.169 1557.01 362.793 1557.01 370.857C1557.01 390.441 1588.11 383.625 1588.11 395.337C1588.11 399.657 1584.27 403.113 1577.36 403.113C1569.97 403.113 1565.45 399.273 1564.97 394.185H1555.95C1556.53 403.785 1565.17 410.505 1577.45 410.505C1589.07 410.505 1596.65 403.977 1596.65 395.337Z" fill="#C8AC48"/>
<path d="M1617.53 404.265C1617.53 400.905 1614.94 398.313 1611.77 398.313C1608.41 398.313 1605.82 400.905 1605.82 404.265C1605.82 407.625 1608.41 410.217 1611.77 410.217C1614.94 410.217 1617.53 407.625 1617.53 404.265Z" fill="#E5E5E5"/>
<path d="M234.473 247.711L219.466 218.058L21.4371 308.536C8.35107 314.515 2.8654 330.179 9.36233 343.016C15.8593 355.853 31.7297 360.708 44.2969 353.704L234.473 247.711Z" fill="#C8AC48"/>
<path d="M43.3951 354.186C30.9835 360.468 15.7038 355.545 9.36396 343.019C7.48848 339.313 6.61454 335.376 6.63869 331.502C14.0867 336.948 24.2491 338.084 32.9832 333.663C33.2901 333.508 33.6007 333.338 33.9025 333.174L224.083 227.179L234.475 247.712L44.2955 353.707C43.9937 353.871 43.6925 354.036 43.3951 354.186Z" fill="#C8AC48"/>
<path d="M281.137 179.682L209.602 224.156L223.72 252.049L301.918 220.743L281.137 179.682Z" fill="#C8AC48"/>
<path d="M281.137 179.682L258.022 194.053L261.373 200.673C263.839 205.547 261.888 211.496 257.015 213.962L215.163 235.143L223.72 252.049L301.918 220.743L281.137 179.682Z" fill="#C8AC48"/>
<path d="M207.336 259.828L193.632 232.751C189.671 224.924 192.805 215.366 200.633 211.404C208.46 207.442 218.019 210.577 221.98 218.404L235.684 245.481C239.646 253.309 236.511 262.866 228.683 266.829C220.856 270.79 211.298 267.656 207.336 259.828Z" fill="#FCC16D"/>
<path d="M228.677 266.826C224.76 268.808 220.412 269.011 216.561 267.749C212.696 266.482 209.313 263.743 207.33 259.825L196.943 239.301C198.925 243.219 202.308 245.958 206.169 247.215C210.025 248.487 214.373 248.284 218.29 246.302C226.124 242.337 229.251 232.779 225.291 224.955L235.678 245.478C239.642 253.313 236.512 262.861 228.677 266.826Z" fill="#FCC16D"/>
<path d="M353.752 48.23L384.18 108.352L289.792 156.122L259.364 96.0004L353.752 48.23Z" fill="#C8AC48"/>
<path d="M356.418 287.879L325.991 227.757L420.379 179.987L450.807 240.108L356.418 287.879Z" fill="#C8AC48"/>
<path d="M241.51 107.426L240.453 105.338C236.445 97.4185 239.616 87.7496 247.535 83.7407L350.85 31.4529C358.769 27.4449 368.438 30.6156 372.447 38.5352L373.504 40.6232C377.512 48.5425 374.341 58.2113 366.421 62.2202L263.107 114.508C255.187 118.516 245.518 115.345 241.51 107.426Z" fill="#FCC16D"/>
<path d="M336.676 295.463L337.733 297.551C341.741 305.47 351.41 308.641 359.33 304.633L462.645 252.345C470.564 248.337 473.735 238.669 469.727 230.748L468.67 228.66C464.662 220.741 454.993 217.57 447.073 221.578L343.758 273.866C335.838 277.875 332.667 287.543 336.676 295.463Z" fill="#FCC16D"/>
<path d="M409.284 98.1631L443.454 165.679L300.899 237.827L266.729 170.311L409.284 98.1631Z" fill="#FCC16D"/>
<path d="M283.551 203.702L426.106 131.555L443.401 165.727L300.846 237.874L283.551 203.702Z" fill="#E7AD5B"/>
<path d="M410.231 96.1058L399.445 86.9284C395.747 83.7822 390.522 83.1612 386.191 85.3542L270.039 144.139C265.707 146.332 263.114 150.909 263.459 155.751L264.467 169.878C264.875 175.606 270.987 179.069 276.11 176.476L408.652 109.395C413.777 106.802 414.605 99.8268 410.231 96.1058Z" fill="#C8AC48"/>
<path d="M445.712 166.21L446.72 180.337C447.065 185.179 444.472 189.757 440.14 191.949L323.988 250.734C319.655 252.926 314.432 252.306 310.734 249.159L299.947 239.982C295.573 236.261 296.402 229.285 301.526 226.692L434.069 159.612C439.192 157.019 445.304 160.482 445.712 166.21Z" fill="#C8AC48"/>
<path d="M501.431 355.859H306.251V328.469C306.251 322.815 310.835 318.23 316.49 318.23H491.192C496.847 318.23 501.431 322.815 501.431 328.469V355.859Z" fill="#AB974E"/>
<path d="M501.428 328.471V355.859H480.009V328.471C480.009 322.819 475.422 318.232 469.771 318.232H491.19C496.841 318.232 501.428 322.819 501.428 328.471Z" fill="#C8AC48"/>
<path d="M544.447 409.621H263.235C255.775 409.621 250.821 401.901 253.926 395.12L263.868 373.413C272.479 354.611 291.261 342.554 311.942 342.554H495.74C516.421 342.554 535.204 354.611 543.815 373.413L553.756 395.12C556.862 401.901 551.906 409.621 544.447 409.621Z" fill="#C8AC48"/>
<path d="M544.451 409.622H517.073C524.527 409.622 529.482 401.902 526.38 395.124L516.439 373.408C507.827 354.61 489.04 342.549 468.368 342.549H495.735C516.417 342.549 535.205 354.611 543.816 373.408L553.758 395.124C556.861 401.902 551.905 409.622 544.451 409.622Z" fill="#AB9750"/>
<path d="M529.535 301.276C527.712 301.276 525.892 300.578 524.505 299.185C521.745 296.406 521.758 291.916 524.535 289.154L532.21 281.525C534.988 278.765 539.478 278.779 542.24 281.555C545.001 284.334 544.988 288.824 542.21 291.585L534.535 299.214C533.152 300.59 531.342 301.276 529.535 301.276Z" fill="#FCC16D"/>
<path d="M507.154 285.414C506.583 285.414 506.002 285.345 505.423 285.199C501.624 284.246 499.317 280.394 500.269 276.596L502.931 265.983C503.884 262.184 507.739 259.878 511.535 260.83C515.333 261.783 517.64 265.635 516.688 269.433L514.026 280.046C513.219 283.266 510.329 285.414 507.154 285.414Z" fill="#FCC16D"/>
<path d="M545.269 323.75C542.077 323.75 539.178 321.58 538.386 318.341C537.456 314.536 539.785 310.697 543.59 309.768L554.221 307.167C558.028 306.235 561.864 308.566 562.795 312.371C563.726 316.176 561.397 320.015 557.591 320.945L546.96 323.545C546.394 323.683 545.827 323.75 545.269 323.75Z" fill="#FCC16D"/>
</svg>
