<svg width="50" height="50" viewBox="0 0 50 50" fill="none" xmlns="http://www.w3.org/2000/svg">
<path d="M50 25C50 31.6304 47.3661 37.9893 42.6777 42.6777C37.9893 47.3661 31.6304 50 25 50C18.3696 50 12.0107 47.3661 7.32233 42.6777C2.63392 37.9893 0 31.6304 0 25C0 18.3696 2.63392 12.0107 7.32233 7.32233C12.0107 2.63392 18.3696 0 25 0C31.6304 0 37.9893 2.63392 42.6777 7.32233C47.3661 12.0107 50 18.3696 50 25ZM37.5938 15.5312C37.3705 15.3088 37.1047 15.1337 36.8123 15.0163C36.5198 14.8989 36.2067 14.8417 35.8916 14.8482C35.5766 14.8546 35.266 14.9245 34.9786 15.0537C34.6912 15.1828 34.4327 15.3687 34.2188 15.6L23.3656 29.4281L16.825 22.8844C16.3807 22.4704 15.7931 22.245 15.1859 22.2557C14.5787 22.2664 13.9993 22.5124 13.5699 22.9418C13.1405 23.3712 12.8945 23.9506 12.8838 24.5577C12.8731 25.1649 13.0985 25.7526 13.5125 26.1969L21.7812 34.4688C22.004 34.6911 22.2693 34.8663 22.5612 34.9839C22.8531 35.1015 23.1658 35.1591 23.4805 35.1533C23.7951 35.1475 24.1054 35.0783 24.3928 34.95C24.6802 34.8216 24.9388 34.6367 25.1531 34.4062L37.6281 18.8125C38.0534 18.3703 38.2884 17.779 38.2825 17.1655C38.2767 16.552 38.0305 15.9653 37.5969 15.5312H37.5938Z" fill="#219653"/>
</svg>
